<svg aria-hidden="true" style="position: absolute; width: 0; height: 0; overflow: hidden;" version="1.1" xmlns="http://www.w3.org/2000/svg" xmlns:xlink="http://www.w3.org/1999/xlink">
<defs>
<symbol id="icon-number" viewBox="0 0 32 32">
<title>number</title>
<path d="M16 3c-7.18 0-13 5.82-13 13s5.82 13 13 13 13-5.82 13-13-5.82-13-13-13zM19.546 20.68c-0.839 1.137-2.003 1.705-3.492 1.705-1.19 0-2.16-0.319-2.911-0.959-0.75-0.641-1.199-1.502-1.346-2.582l2.469-0.256c0.070 0.559 0.278 1 0.623 1.324 0.345 0.326 0.742 0.488 1.192 0.488 0.515 0 0.949-0.209 1.307-0.627 0.355-0.418 0.534-1.049 0.534-1.893 0-0.79-0.178-1.383-0.532-1.778-0.355-0.395-0.818-0.593-1.388-0.593-0.71 0-1.348 0.312-1.911 0.938l-1.997-0.289 1.266-6.711h6.531v2.312h-4.658l-0.397 2.192c0.553-0.273 1.117-0.411 1.693-0.411 1.099 0 2.030 0.399 2.795 1.196s1.146 1.832 1.146 3.103c-0.001 1.062-0.309 2.009-0.924 2.841z"></path>
</symbol>
<symbol id="icon-number1" viewBox="0 0 32 32">
<title>number1</title>
<path d="M16.359 17.583v-4.405l-2.971 4.405h2.971zM16 3c-7.18 0-13 5.82-13 13s5.82 13 13 13 13-5.82 13-13-5.82-13-13-13zM20.344 19.739h-1.594v2.595h-2.391v-2.595h-5.281v-2.147l5.598-8.196h2.074v8.187h1.594v2.156z"></path>
</symbol>
<symbol id="icon-number2" viewBox="0 0 32 32">
<title>number2</title>
<path d="M16 3c-7.18 0-13 5.82-13 13s5.82 13 13 13 13-5.82 13-13-5.82-13-13-13zM18.995 21.357c-0.826 0.797-1.854 1.194-3.086 1.194-1.166 0-2.133-0.335-2.9-1.005-0.769-0.67-1.214-1.545-1.337-2.627l2.391-0.289c0.076 0.607 0.281 1.071 0.616 1.393 0.333 0.321 0.738 0.482 1.213 0.482 0.51 0 0.939-0.194 1.289-0.582 0.348-0.387 0.522-0.909 0.522-1.566 0-0.621-0.167-1.115-0.501-1.479-0.335-0.364-0.742-0.545-1.223-0.545-0.317 0-0.695 0.062-1.136 0.184l0.272-1.997c0.668 0.018 1.178-0.127 1.529-0.434s0.526-0.715 0.526-1.224c0-0.433-0.128-0.777-0.385-1.035-0.258-0.257-0.599-0.386-1.025-0.386-0.421 0-0.779 0.146-1.077 0.438s-0.479 0.72-0.544 1.281l-2.281-0.386c0.158-0.782 0.397-1.407 0.717-1.875s0.765-0.835 1.336-1.103 1.212-0.401 1.921-0.401c1.213 0 2.186 0.387 2.918 1.161 0.604 0.633 0.905 1.348 0.905 2.145 0 1.131-0.619 2.034-1.858 2.708 0.739 0.158 1.33 0.513 1.772 1.063 0.443 0.551 0.664 1.215 0.664 1.994 0.001 1.132-0.412 2.095-1.238 2.891z"></path>
</symbol>
<symbol id="icon-number3" viewBox="0 0 32 32">
<title>number3</title>
<path d="M16 3c-7.18 0-13 5.82-13 13s5.82 13 13 13 13-5.82 13-13-5.82-13-13-13zM20.342 20.426v2.297h-8.656c0.093-0.867 0.374-1.688 0.843-2.465 0.468-0.776 1.393-1.807 2.774-3.090 1.111-1.037 1.793-1.74 2.045-2.109 0.34-0.51 0.51-1.014 0.51-1.512 0-0.551-0.147-0.975-0.441-1.271s-0.7-0.444-1.219-0.444c-0.512 0-0.92 0.156-1.223 0.467s-0.478 0.827-0.523 1.549l-2.469-0.247c0.146-1.359 0.605-2.335 1.378-2.928s1.739-0.888 2.898-0.888c1.27 0 2.268 0.343 2.994 1.028s1.089 1.538 1.089 2.557c0 0.58-0.104 1.132-0.312 1.656s-0.537 1.074-0.988 1.647c-0.299 0.38-0.839 0.929-1.621 1.644-0.781 0.714-1.276 1.188-1.484 1.422s-0.376 0.463-0.505 0.686h4.91z"></path>
</symbol>
<symbol id="icon-number4" viewBox="0 0 32 32">
<title>number4</title>
<path d="M16 3c-7.18 0-13 5.82-13 13s5.82 13 13 13 13-5.82 13-13-5.82-13-13-13zM17.757 22.536h-2.469v-9.305c-0.901 0.841-1.964 1.463-3.188 1.867v-2.234c0.644-0.211 1.344-0.612 2.099-1.202s1.273-1.278 1.555-2.064h2.003v12.938z"></path>
</symbol>
<symbol id="icon-calendar" viewBox="0 0 20 20">
<title>calendar</title>
<path d="M17 3h-1v2h-3v-2h-6v2h-3v-2h-1c-1.101 0-2 0.9-2 2v12c0 1.1 0.899 2 2 2h14c1.1 0 2-0.9 2-2v-12c0-1.1-0.9-2-2-2zM17 17h-14v-8h14v8zM6.5 1h-2v3.5h2v-3.5zM15.5 1h-2v3.5h2v-3.5z"></path>
</symbol>
</defs>
</svg>
